<svg width="840" height="560" version="1.1" viewBox="0 0 840 560" encoding="UTF-8" xmlns="http://www.w3.org/2000/svg"><rect x="0" y="0" height="100%" width="100%" fill="#ffffff"></rect><defs>
<g id="diaohao_fu" transform="translate(-50,-50)"><path d="m63.90001,57.81227l-8.81873,0l0,-1.70001l3.45433,0l0,-11.7568l-3.53561,1.04459l0,-1.80243l5.46599,-1.59762l0,14.11224l3.43402,0l0,1.70001l0,0.00001l0,0.00001z" fill="#1b1b1b"></path><rect height="2" width="11" y="46.85897" x="68" stroke-width="33" fill="#1b1b1b"></rect><rect height="2" width="11" y="51.32479" x="68" stroke-width="33" fill="#1b1b1b"></rect></g><g id="diaohao_zimu_c" transform="translate(-50,-50)"><path fill="#1b1b1b" d="m55.85,42.82703q-1.71571,-0.90955 -4.3203,-0.90955q-3.36943,0 -5.37457,2.13949t-2.00512,5.65363q0,3.76219 2.26351,6.06705t5.73631,2.30486q2.23251,0 3.70017,-0.64081l0,-2.10849q-1.67438,0.93021 -3.6795,0.93021q-2.60459,0 -4.25832,-1.73639t-1.65372,-4.69241q0,-2.81131 1.54002,-4.46502t4.02058,-1.65371q2.31519,0 4.03091,1.05424l0,-1.94311l0.00002,0.00001l0.00002,0z"></path></g><g id="paihao_xian" transform="translate(-50,-50)"><rect fill="#1b1b1b" stroke-width="33" stroke-linejoin="null" stroke-linecap="null" x="51" y="49" width="21" height="2"></rect></g><g id="shuzi_c_bian_4" transform="translate(-50,-50)"><path d="m50.13028,53.52836l-4.87848,0l0,-0.95818l6.44669,-9.7574l1.13291,0l0,9.23452l1.9168,0l0,1.48106l-1.9168,0l0,3.65886l-2.70068,0l0,-3.65886l-0.00045,0zm0,-6.79528l-0.08714,0l-3.39743,5.31422l3.48457,0l0,-5.31422l0,0z" fill="black"></path></g><g id="shuzi_c_1" transform="translate(-50,-50)"><rect height="17.9" width="11.1" y="41.05" x="44.45" stroke-width="0" fill="#ffffff"></rect><path fill="black" d="m51.71225,56.72592c0,0.80306 0.32822,1.2029 0.98409,1.2029l1.85934,0l0,0.98408l-8.96846,0l0,-0.98408l1.74994,0c0.65642,-0.07163 0.98409,-0.43763 0.98409,-1.0935l0,-12.24893c-1.16737,0.65644 -2.26085,1.13125 -3.28105,1.42172l-0.43762,-0.76528c2.18699,-1.09351 4.04689,-2.47802 5.57743,-4.15573l1.53112,0l0,15.63882l0.00111,0l0.00001,0z"></path></g><g id="shuzi_c_2" transform="translate(-50,-50)"><rect height="17.9" width="11.1" y="41.05" x="44.45" stroke-width="0" fill="#ffffff"></rect><path fill="black" d="m44.23404,57.96309c0.29169,-0.36531 0.73117,-0.84104 1.31789,-1.42776c4.61288,-4.68482 6.66194,-7.8705 6.15051,-9.55537c-0.07361,-2.34241 -1.0262,-3.55098 -2.85551,-3.6246c-1.68486,0.14779 -2.74564,1.20857 -3.18512,3.18512l-1.09814,0c0.58504,-3.51473 2.45228,-5.34404 5.60115,-5.49184c3.07526,0.21974 4.72275,1.86723 4.9425,4.94249c0.14612,1.90516 -1.13607,3.99158 -3.84435,6.26038c-1.61124,1.46568 -2.85551,2.70996 -3.73447,3.73448l5.27211,0c1.24426,0.07362 1.93918,-0.6213 2.08697,-2.08698l0.8784,0l-0.54879,5.05236l-10.98313,0l0,-0.98827z"></path></g><g id="shuzi_c_3" transform="translate(-50,-50)"><rect height="17.9" width="11.1" y="41.05" x="44.45" stroke-width="0" fill="#ffffff"></rect><path fill="black" d="m47.99024,49.51211c1.95488,-1.59247 2.8959,-3.00457 2.8242,-4.23684c-0.0728,-1.30343 -0.72481,-1.99072 -1.95542,-2.06409c-1.08611,0 -1.95543,0.65199 -2.60742,1.95543l-0.86876,-0.326c0.94048,-2.46124 2.60741,-3.72882 4.99694,-3.80218c2.24391,0.14617 3.47619,1.15947 3.69351,3.04153c0,1.44905 -0.97743,2.75303 -2.93286,3.91029l0.10867,0c2.60741,0.14618 4.01951,1.70224 4.23684,4.67096c-0.29015,3.98365 -2.60741,6.08305 -6.95237,6.30038c-2.46288,-0.14618 -3.80218,-0.86932 -4.01951,-2.17275c0.07115,-0.86877 0.57864,-1.33929 1.52076,-1.4121c0.57862,0 1.15781,0.3988 1.73809,1.19532c0.57862,0.86877 1.23064,1.30343 1.95543,1.30343c1.52077,-0.14397 2.31672,-1.4121 2.39009,-3.80218c-0.0728,-2.53405 -1.01495,-3.87334 -2.82475,-4.01951c-0.14618,0 -0.29013,0.03751 -0.43466,0.10866c-0.14618,0.07282 -0.29015,0.10866 -0.43466,0.10866l-0.43411,-0.75899z"></path></g><g id="xiaojiexian" transform="translate(-50,-50)"><rect fill="#ffffff" stroke-width="0" x="45.05" y="35.85" width="9.9" height="28.4"></rect><rect height="29" width="1.5" y="35.5" x="49.25" stroke-width="null" fill="#1b1b1b"></rect></g><g id="shuzi_c_4" transform="translate(-50,-50)"><rect height="17.9" width="11.1" y="41.05" x="44.45" stroke-width="0" fill="#ffffff"></rect><path fill="black" d="m50.16211,54.39056l-6.07059,0l0,-1.19232l8.02201,-12.14174l1.40976,0l0,11.49109l2.38519,0l0,1.84297l-2.38519,0l0,4.55295l-3.36062,0l0,-4.55295l-0.00056,0zm0,-8.45579l-0.10844,0l-4.22763,6.61282l4.33606,0l0,-6.61282z"></path></g><g id="shuzi_c_5" transform="translate(-50,-50)"><rect height="17.9" width="11.1" y="41.05" x="44.45" stroke-width="0" fill="#ffffff"></rect><path fill="black" d="m46.03386,41.2363l6.28103,0c0.58697,0 0.91767,-0.1824 0.99153,-0.55116l0.88186,0l-0.44093,3.30586l-6.72194,0l-0.11024,3.4161c0.73358,-0.22047 1.50465,-0.33071 2.31377,-0.33071c3.89339,0.22047 5.95088,2.16774 6.17079,5.84065c-0.29433,3.82066 -2.60865,5.84066 -6.94241,6.06112c-2.42457,-0.07386 -3.71043,-0.77164 -3.85703,-2.09386c0.07218,-0.95404 0.55059,-1.43302 1.43246,-1.43302c0.66141,0 1.24837,0.44093 1.76316,1.32222c0.51311,0.80912 1.06427,1.21257 1.65292,1.21257c1.61488,-0.14661 2.49675,-1.39497 2.64503,-3.7468c-0.07386,-2.64502 -1.21256,-4.03943 -3.41608,-4.18715c-0.73527,0 -1.47052,0.18409 -2.20411,0.55059l-0.77106,-0.44093l0.33126,-8.92548z"></path></g><g id="yanyinfu" transform="translate(-50,-50)"><rect height="17.9" width="11.1" y="41.05" x="44.45" stroke-width="0" fill="#ffffff"></rect><rect height="3.2" width="11" y="48.4" x="44.5" stroke-width="null" fill="#1b1b1b"></rect></g><g id="shuzi_c_0" transform="translate(-50,-50)"><rect height="17.9" width="11.1" y="41.05" x="44.45" stroke-width="0" fill="#ffffff"></rect><path fill="black" d="m50.00001,41.01781c3.70189,0.36378 5.62417,3.37516 5.77067,9.03637c-0.1465,5.58989 -2.06822,8.56535 -5.77067,8.92801c-3.70135,-0.28914 -5.62582,-3.26625 -5.77068,-8.92801c0.14484,-5.66121 2.06933,-8.67259 5.77068,-9.03637zm-2.1777,12.52045c-0.07297,3.19493 0.65347,4.71915 2.17713,4.57263c1.52478,0.21783 2.24901,-1.45123 2.1777,-5.00828l0,-6.20576c0,-3.33757 -0.72646,-4.9707 -2.1777,-4.89938c-1.52421,-0.14429 -2.2501,1.27101 -2.17713,4.24646l0,7.29433z"></path></g><g id="jieshufu" transform="translate(-50,-50)"><rect fill="#ffffff" stroke-width="0" x="42.45" y="35.65" width="11.7" height="28.4"></rect><rect height="29" width="1" y="35.5" x="45.65" stroke-width="null" fill="#1b1b1b"></rect><rect height="29" width="2.4" y="35.5" x="48.35" stroke-width="null" fill="#1b1b1b"></rect></g></defs>
<text x="420" y="110" dy="30.078" text-anchor="middle" fill="#1b1b1b" style="font-weight:bold;" font-size="36" font-family="auto">右手练习2</text>
<use x="80" y="176" xlink:href="#diaohao_fu" xmlns:xlink="http://www.w3.org/1999/xlink"></use>
<use x="120" y="176" xlink:href="#diaohao_zimu_c" xmlns:xlink="http://www.w3.org/1999/xlink"></use>
<use x="130" y="176" xlink:href="#paihao_xian" xmlns:xlink="http://www.w3.org/1999/xlink"></use>
<use x="140" y="164" xlink:href="#shuzi_c_bian_4" xmlns:xlink="http://www.w3.org/1999/xlink"></use>
<use x="140" y="188" xlink:href="#shuzi_c_bian_4" fill="#414141" xmlns:xlink="http://www.w3.org/1999/xlink"></use>
<text x="760" y="196" dy="-2.632" text-anchor="end" fill="#1b1b1b" font-size="16" font-family="auto">陶笛日记</text>
<use x="83" y="236" xlink:href="#shuzi_c_1" time="1" audio="1" notepos="0_1_1" code="1" xmlns:xlink="http://www.w3.org/1999/xlink"></use>
<use x="106.98617511521" y="236" xlink:href="#shuzi_c_2" time="1" audio="2" notepos="0_1_2" code="2" xmlns:xlink="http://www.w3.org/1999/xlink"></use>
<use x="130.97235023041" y="236" xlink:href="#shuzi_c_1" time="1" audio="1" notepos="0_1_3" code="1" xmlns:xlink="http://www.w3.org/1999/xlink"></use>
<use x="154.95852534562" y="236" xlink:href="#shuzi_c_3" time="1" audio="3" notepos="0_1_4" code="3" xmlns:xlink="http://www.w3.org/1999/xlink"></use>
<use x="177.34562211982" y="236" xlink:href="#xiaojiexian" notepos="0_1_5" time="0" audio="" code="|" xmlns:xlink="http://www.w3.org/1999/xlink"></use>
<use x="199.73271889401" y="236" xlink:href="#shuzi_c_1" time="1" audio="1" notepos="0_1_6" code="1" xmlns:xlink="http://www.w3.org/1999/xlink"></use>
<use x="223.71889400922" y="236" xlink:href="#shuzi_c_4" time="1" audio="4" notepos="0_1_7" code="4" xmlns:xlink="http://www.w3.org/1999/xlink"></use>
<use x="247.70506912442" y="236" xlink:href="#shuzi_c_1" time="1" audio="1" notepos="0_1_8" code="1" xmlns:xlink="http://www.w3.org/1999/xlink"></use>
<use x="271.69124423963" y="236" xlink:href="#shuzi_c_5" time="1" audio="5" notepos="0_1_9" code="5" xmlns:xlink="http://www.w3.org/1999/xlink"></use>
<use x="294.07834101382" y="236" xlink:href="#xiaojiexian" notepos="0_1_10" time="0" audio="" code="|" xmlns:xlink="http://www.w3.org/1999/xlink"></use>
<use x="316.46543778802" y="236" xlink:href="#shuzi_c_1" time="1" audio="1" notepos="0_1_11" code="1" xmlns:xlink="http://www.w3.org/1999/xlink"></use>
<use x="340.45161290323" y="236" xlink:href="#yanyinfu" time="1" audio="" notepos="0_1_12" code="-" xmlns:xlink="http://www.w3.org/1999/xlink"></use>
<use x="364.43778801843" y="236" xlink:href="#yanyinfu" time="1" audio="" notepos="0_1_13" code="-" xmlns:xlink="http://www.w3.org/1999/xlink"></use>
<use x="388.42396313364" y="236" xlink:href="#yanyinfu" time="1" audio="" notepos="0_1_14" code="-" xmlns:xlink="http://www.w3.org/1999/xlink"></use>
<use x="410.81105990783" y="236" xlink:href="#xiaojiexian" notepos="0_1_15" time="0" audio="" code="|" xmlns:xlink="http://www.w3.org/1999/xlink"></use>
<use x="433.19815668203" y="236" xlink:href="#shuzi_c_5" time="1" audio="5" notepos="0_1_16" code="5" xmlns:xlink="http://www.w3.org/1999/xlink"></use>
<use x="457.18433179724" y="236" xlink:href="#shuzi_c_4" time="1" audio="4" notepos="0_1_17" code="4" xmlns:xlink="http://www.w3.org/1999/xlink"></use>
<use x="481.17050691244" y="236" xlink:href="#shuzi_c_5" time="1" audio="5" notepos="0_1_18" code="5" xmlns:xlink="http://www.w3.org/1999/xlink"></use>
<use x="505.15668202765" y="236" xlink:href="#shuzi_c_3" time="1" audio="3" notepos="0_1_19" code="3" xmlns:xlink="http://www.w3.org/1999/xlink"></use>
<use x="527.54377880184" y="236" xlink:href="#xiaojiexian" notepos="0_1_20" time="0" audio="" code="|" xmlns:xlink="http://www.w3.org/1999/xlink"></use>
<use x="549.93087557604" y="236" xlink:href="#shuzi_c_5" time="1" audio="5" notepos="0_1_21" code="5" xmlns:xlink="http://www.w3.org/1999/xlink"></use>
<use x="573.91705069124" y="236" xlink:href="#shuzi_c_2" time="1" audio="2" notepos="0_1_22" code="2" xmlns:xlink="http://www.w3.org/1999/xlink"></use>
<use x="597.90322580645" y="236" xlink:href="#shuzi_c_5" time="1" audio="5" notepos="0_1_23" code="5" xmlns:xlink="http://www.w3.org/1999/xlink"></use>
<use x="621.88940092166" y="236" xlink:href="#shuzi_c_1" time="1" audio="1" notepos="0_1_24" code="1" xmlns:xlink="http://www.w3.org/1999/xlink"></use>
<use x="644.27649769585" y="236" xlink:href="#xiaojiexian" notepos="0_1_25" time="0" audio="" code="|" xmlns:xlink="http://www.w3.org/1999/xlink"></use>
<use x="666.66359447005" y="236" xlink:href="#shuzi_c_5" time="1" audio="5" notepos="0_1_26" code="5" xmlns:xlink="http://www.w3.org/1999/xlink"></use>
<use x="690.64976958525" y="236" xlink:href="#yanyinfu" time="1" audio="" notepos="0_1_27" code="-" xmlns:xlink="http://www.w3.org/1999/xlink"></use>
<use x="714.63594470046" y="236" xlink:href="#yanyinfu" time="1" audio="" notepos="0_1_28" code="-" xmlns:xlink="http://www.w3.org/1999/xlink"></use>
<use x="738.62211981567" y="236" xlink:href="#yanyinfu" time="1" audio="" notepos="0_1_29" code="-" xmlns:xlink="http://www.w3.org/1999/xlink"></use>
<use x="763" y="236" xlink:href="#xiaojiexian" notepos="0_1_30" time="0" audio="" code="|" xmlns:xlink="http://www.w3.org/1999/xlink"></use>
<use x="83" y="314" xlink:href="#shuzi_c_1" time="1" audio="1" notepos="0_2_1" code="1" xmlns:xlink="http://www.w3.org/1999/xlink"></use>
<use x="111.83656509695" y="314" xlink:href="#shuzi_c_3" time="1" audio="3" notepos="0_2_2" code="3" xmlns:xlink="http://www.w3.org/1999/xlink"></use>
<use x="140.67313019391" y="314" xlink:href="#shuzi_c_5" time="1" audio="5" notepos="0_2_3" code="5" xmlns:xlink="http://www.w3.org/1999/xlink"></use>
<use x="169.50969529086" y="314" xlink:href="#yanyinfu" time="1" audio="" notepos="0_2_4" code="-" xmlns:xlink="http://www.w3.org/1999/xlink"></use>
<use x="196.42382271468" y="314" xlink:href="#xiaojiexian" notepos="0_2_5" time="0" audio="" code="|" xmlns:xlink="http://www.w3.org/1999/xlink"></use>
<use x="223.3379501385" y="314" xlink:href="#shuzi_c_5" time="1" audio="5" notepos="0_2_6" code="5" xmlns:xlink="http://www.w3.org/1999/xlink"></use>
<use x="252.17451523546" y="314" xlink:href="#shuzi_c_3" time="1" audio="3" notepos="0_2_7" code="3" xmlns:xlink="http://www.w3.org/1999/xlink"></use>
<use x="281.01108033241" y="314" xlink:href="#shuzi_c_1" time="1" audio="1" notepos="0_2_8" code="1" xmlns:xlink="http://www.w3.org/1999/xlink"></use>
<use x="309.84764542936" y="314" xlink:href="#yanyinfu" time="1" audio="" notepos="0_2_9" code="-" xmlns:xlink="http://www.w3.org/1999/xlink"></use>
<use x="336.76177285319" y="314" xlink:href="#xiaojiexian" notepos="0_2_10" time="0" audio="" code="|" xmlns:xlink="http://www.w3.org/1999/xlink"></use>
<use x="363.67590027701" y="314" xlink:href="#shuzi_c_3" time="1" audio="3" notepos="0_2_11" code="3" xmlns:xlink="http://www.w3.org/1999/xlink"></use>
<use x="392.51246537396" y="314" xlink:href="#shuzi_c_5" time="1" audio="5" notepos="0_2_12" code="5" xmlns:xlink="http://www.w3.org/1999/xlink"></use>
<use x="421.34903047091" y="314" xlink:href="#shuzi_c_1" time="1" audio="1" notepos="0_2_13" code="1" xmlns:xlink="http://www.w3.org/1999/xlink"></use>
<use x="450.18559556787" y="314" xlink:href="#yanyinfu" time="1" audio="" notepos="0_2_14" code="-" xmlns:xlink="http://www.w3.org/1999/xlink"></use>
<use x="477.09972299169" y="314" xlink:href="#xiaojiexian" notepos="0_2_15" time="0" audio="" code="|" xmlns:xlink="http://www.w3.org/1999/xlink"></use>
<use x="504.01385041551" y="314" xlink:href="#shuzi_c_2" time="1" audio="2" notepos="0_2_16" code="2" xmlns:xlink="http://www.w3.org/1999/xlink"></use>
<use x="532.85041551247" y="314" xlink:href="#shuzi_c_4" time="1" audio="4" notepos="0_2_17" code="4" xmlns:xlink="http://www.w3.org/1999/xlink"></use>
<use x="561.68698060942" y="314" xlink:href="#shuzi_c_2" time="1" audio="2" notepos="0_2_18" code="2" xmlns:xlink="http://www.w3.org/1999/xlink"></use>
<use x="590.52354570637" y="314" xlink:href="#shuzi_c_4" time="1" audio="4" notepos="0_2_19" code="4" xmlns:xlink="http://www.w3.org/1999/xlink"></use>
<use x="617.43767313019" y="314" xlink:href="#xiaojiexian" notepos="0_2_20" time="0" audio="" code="|" xmlns:xlink="http://www.w3.org/1999/xlink"></use>
<use x="644.35180055402" y="314" xlink:href="#shuzi_c_3" time="1" audio="3" notepos="0_2_21" code="3" xmlns:xlink="http://www.w3.org/1999/xlink"></use>
<use x="673.18836565097" y="314" xlink:href="#shuzi_c_5" time="1" audio="5" notepos="0_2_22" code="5" xmlns:xlink="http://www.w3.org/1999/xlink"></use>
<use x="702.02493074792" y="314" xlink:href="#shuzi_c_1" time="1" audio="1" notepos="0_2_23" code="1" xmlns:xlink="http://www.w3.org/1999/xlink"></use>
<use x="730.86149584488" y="314" xlink:href="#yanyinfu" time="1" audio="" notepos="0_2_24" code="-" xmlns:xlink="http://www.w3.org/1999/xlink"></use>
<use x="763" y="314" xlink:href="#xiaojiexian" notepos="0_2_25" time="0" audio="" code="|" xmlns:xlink="http://www.w3.org/1999/xlink"></use>
<use x="83" y="392" xlink:href="#shuzi_c_5" time="1" audio="5" notepos="0_3_1" code="5" xmlns:xlink="http://www.w3.org/1999/xlink"></use>
<use x="119.14583333333" y="392" xlink:href="#shuzi_c_3" time="1" audio="3" notepos="0_3_2" code="3" xmlns:xlink="http://www.w3.org/1999/xlink"></use>
<use x="155.29166666667" y="392" xlink:href="#shuzi_c_3" time="1" audio="3" notepos="0_3_3" code="3" xmlns:xlink="http://www.w3.org/1999/xlink"></use>
<use x="191.4375" y="392" xlink:href="#shuzi_c_0" time="1" audio="0" notepos="0_3_4" code="0" xmlns:xlink="http://www.w3.org/1999/xlink"></use>
<use x="225.17361111111" y="392" xlink:href="#xiaojiexian" notepos="0_3_5" time="0" audio="" code="|" xmlns:xlink="http://www.w3.org/1999/xlink"></use>
<use x="258.90972222222" y="392" xlink:href="#shuzi_c_4" time="1" audio="4" notepos="0_3_6" code="4" xmlns:xlink="http://www.w3.org/1999/xlink"></use>
<use x="295.05555555556" y="392" xlink:href="#shuzi_c_2" time="1" audio="2" notepos="0_3_7" code="2" xmlns:xlink="http://www.w3.org/1999/xlink"></use>
<use x="331.20138888889" y="392" xlink:href="#shuzi_c_2" time="1" audio="2" notepos="0_3_8" code="2" xmlns:xlink="http://www.w3.org/1999/xlink"></use>
<use x="367.34722222222" y="392" xlink:href="#shuzi_c_0" time="1" audio="0" notepos="0_3_9" code="0" xmlns:xlink="http://www.w3.org/1999/xlink"></use>
<use x="401.08333333333" y="392" xlink:href="#xiaojiexian" notepos="0_3_10" time="0" audio="" code="|" xmlns:xlink="http://www.w3.org/1999/xlink"></use>
<use x="434.81944444444" y="392" xlink:href="#shuzi_c_1" time="1" audio="1" notepos="0_3_11" code="1" xmlns:xlink="http://www.w3.org/1999/xlink"></use>
<use x="470.96527777778" y="392" xlink:href="#shuzi_c_2" time="1" audio="2" notepos="0_3_12" code="2" xmlns:xlink="http://www.w3.org/1999/xlink"></use>
<use x="507.11111111111" y="392" xlink:href="#shuzi_c_3" time="1" audio="3" notepos="0_3_13" code="3" xmlns:xlink="http://www.w3.org/1999/xlink"></use>
<use x="543.25694444444" y="392" xlink:href="#shuzi_c_4" time="1" audio="4" notepos="0_3_14" code="4" xmlns:xlink="http://www.w3.org/1999/xlink"></use>
<use x="576.99305555556" y="392" xlink:href="#xiaojiexian" notepos="0_3_15" time="0" audio="" code="|" xmlns:xlink="http://www.w3.org/1999/xlink"></use>
<use x="610.72916666667" y="392" xlink:href="#shuzi_c_5" time="1" audio="5" notepos="0_3_16" code="5" xmlns:xlink="http://www.w3.org/1999/xlink"></use>
<use x="646.875" y="392" xlink:href="#shuzi_c_5" time="1" audio="5" notepos="0_3_17" code="5" xmlns:xlink="http://www.w3.org/1999/xlink"></use>
<use x="683.02083333333" y="392" xlink:href="#shuzi_c_5" time="1" audio="5" notepos="0_3_18" code="5" xmlns:xlink="http://www.w3.org/1999/xlink"></use>
<use x="719.16666666667" y="392" xlink:href="#shuzi_c_0" time="1" audio="0" notepos="0_3_19" code="0" xmlns:xlink="http://www.w3.org/1999/xlink"></use>
<use x="763" y="392" xlink:href="#xiaojiexian" notepos="0_3_20" time="0" audio="" code="|" xmlns:xlink="http://www.w3.org/1999/xlink"></use>
<use x="83" y="470" xlink:href="#shuzi_c_5" time="1" audio="5" notepos="0_4_1" code="5" xmlns:xlink="http://www.w3.org/1999/xlink"></use>
<use x="119.14583333333" y="470" xlink:href="#shuzi_c_3" time="1" audio="3" notepos="0_4_2" code="3" xmlns:xlink="http://www.w3.org/1999/xlink"></use>
<use x="155.29166666667" y="470" xlink:href="#shuzi_c_3" time="1" audio="3" notepos="0_4_3" code="3" xmlns:xlink="http://www.w3.org/1999/xlink"></use>
<use x="191.4375" y="470" xlink:href="#shuzi_c_0" time="1" audio="0" notepos="0_4_4" code="0" xmlns:xlink="http://www.w3.org/1999/xlink"></use>
<use x="225.17361111111" y="470" xlink:href="#xiaojiexian" notepos="0_4_5" time="0" audio="" code="|" xmlns:xlink="http://www.w3.org/1999/xlink"></use>
<use x="258.90972222222" y="470" xlink:href="#shuzi_c_4" time="1" audio="4" notepos="0_4_6" code="4" xmlns:xlink="http://www.w3.org/1999/xlink"></use>
<use x="295.05555555556" y="470" xlink:href="#shuzi_c_2" time="1" audio="2" notepos="0_4_7" code="2" xmlns:xlink="http://www.w3.org/1999/xlink"></use>
<use x="331.20138888889" y="470" xlink:href="#shuzi_c_2" time="1" audio="2" notepos="0_4_8" code="2" xmlns:xlink="http://www.w3.org/1999/xlink"></use>
<use x="367.34722222222" y="470" xlink:href="#shuzi_c_0" time="1" audio="0" notepos="0_4_9" code="0" xmlns:xlink="http://www.w3.org/1999/xlink"></use>
<use x="401.08333333333" y="470" xlink:href="#xiaojiexian" notepos="0_4_10" time="0" audio="" code="|" xmlns:xlink="http://www.w3.org/1999/xlink"></use>
<use x="434.81944444444" y="470" xlink:href="#shuzi_c_1" time="1" audio="1" notepos="0_4_11" code="1" xmlns:xlink="http://www.w3.org/1999/xlink"></use>
<use x="470.96527777778" y="470" xlink:href="#shuzi_c_3" time="1" audio="3" notepos="0_4_12" code="3" xmlns:xlink="http://www.w3.org/1999/xlink"></use>
<use x="507.11111111111" y="470" xlink:href="#shuzi_c_5" time="1" audio="5" notepos="0_4_13" code="5" xmlns:xlink="http://www.w3.org/1999/xlink"></use>
<use x="543.25694444444" y="470" xlink:href="#shuzi_c_5" time="1" audio="5" notepos="0_4_14" code="5" xmlns:xlink="http://www.w3.org/1999/xlink"></use>
<use x="576.99305555556" y="470" xlink:href="#xiaojiexian" notepos="0_4_15" time="0" audio="" code="|" xmlns:xlink="http://www.w3.org/1999/xlink"></use>
<use x="610.72916666667" y="470" xlink:href="#shuzi_c_1" time="1" audio="1" notepos="0_4_16" code="1" xmlns:xlink="http://www.w3.org/1999/xlink"></use>
<use x="646.875" y="470" xlink:href="#shuzi_c_0" time="1" audio="0" notepos="0_4_17" code="0" xmlns:xlink="http://www.w3.org/1999/xlink"></use>
<use x="683.02083333333" y="470" xlink:href="#shuzi_c_0" time="1" audio="0" notepos="0_4_18" code="0" xmlns:xlink="http://www.w3.org/1999/xlink"></use>
<use x="719.16666666667" y="470" xlink:href="#shuzi_c_0" time="1" audio="0" notepos="0_4_19" code="0" xmlns:xlink="http://www.w3.org/1999/xlink"></use>
<use x="763" y="470" xlink:href="#jieshufu" notepos="0_4_20" time="0" audio="" code="|j" xmlns:xlink="http://www.w3.org/1999/xlink"></use>
<g id="custom"></g></svg>
