<svg width="840" height="560" version="1.1" viewBox="0 0 840 560" encoding="UTF-8" xmlns="http://www.w3.org/2000/svg"><rect x="0" y="0" height="100%" width="100%" fill="#ffffff"></rect><defs>
<g id="diaohao_fu" transform="translate(-50,-50)"><path d="m63.90001,57.81227l-8.81873,0l0,-1.70001l3.45433,0l0,-11.7568l-3.53561,1.04459l0,-1.80243l5.46599,-1.59762l0,14.11224l3.43402,0l0,1.70001l0,0.00001l0,0.00001z" fill="#1b1b1b"></path><rect height="2" width="11" y="46.85897" x="68" stroke-width="33" fill="#1b1b1b"></rect><rect height="2" width="11" y="51.32479" x="68" stroke-width="33" fill="#1b1b1b"></rect></g><g id="diaohao_zimu_c" transform="translate(-50,-50)"><path fill="#1b1b1b" d="m55.85,42.82703q-1.71571,-0.90955 -4.3203,-0.90955q-3.36943,0 -5.37457,2.13949t-2.00512,5.65363q0,3.76219 2.26351,6.06705t5.73631,2.30486q2.23251,0 3.70017,-0.64081l0,-2.10849q-1.67438,0.93021 -3.6795,0.93021q-2.60459,0 -4.25832,-1.73639t-1.65372,-4.69241q0,-2.81131 1.54002,-4.46502t4.02058,-1.65371q2.31519,0 4.03091,1.05424l0,-1.94311l0.00002,0.00001l0.00002,0z"></path></g><g id="paihao_xian" transform="translate(-50,-50)"><rect fill="#1b1b1b" stroke-width="33" stroke-linejoin="null" stroke-linecap="null" x="51" y="49" width="21" height="2"></rect></g><g id="shuzi_c_bian_4" transform="translate(-50,-50)"><path d="m50.13028,53.52836l-4.87848,0l0,-0.95818l6.44669,-9.7574l1.13291,0l0,9.23452l1.9168,0l0,1.48106l-1.9168,0l0,3.65886l-2.70068,0l0,-3.65886l-0.00045,0zm0,-6.79528l-0.08714,0l-3.39743,5.31422l3.48457,0l0,-5.31422l0,0z" fill="black"></path></g><g id="shuzi_c_5" transform="translate(-50,-50)"><rect height="17.9" width="11.1" y="41.05" x="44.45" stroke-width="0" fill="#ffffff"></rect><path fill="black" d="m46.03386,41.2363l6.28103,0c0.58697,0 0.91767,-0.1824 0.99153,-0.55116l0.88186,0l-0.44093,3.30586l-6.72194,0l-0.11024,3.4161c0.73358,-0.22047 1.50465,-0.33071 2.31377,-0.33071c3.89339,0.22047 5.95088,2.16774 6.17079,5.84065c-0.29433,3.82066 -2.60865,5.84066 -6.94241,6.06112c-2.42457,-0.07386 -3.71043,-0.77164 -3.85703,-2.09386c0.07218,-0.95404 0.55059,-1.43302 1.43246,-1.43302c0.66141,0 1.24837,0.44093 1.76316,1.32222c0.51311,0.80912 1.06427,1.21257 1.65292,1.21257c1.61488,-0.14661 2.49675,-1.39497 2.64503,-3.7468c-0.07386,-2.64502 -1.21256,-4.03943 -3.41608,-4.18715c-0.73527,0 -1.47052,0.18409 -2.20411,0.55059l-0.77106,-0.44093l0.33126,-8.92548z"></path></g><g id="shuzi_c_3" transform="translate(-50,-50)"><rect height="17.9" width="11.1" y="41.05" x="44.45" stroke-width="0" fill="#ffffff"></rect><path fill="black" d="m47.99024,49.51211c1.95488,-1.59247 2.8959,-3.00457 2.8242,-4.23684c-0.0728,-1.30343 -0.72481,-1.99072 -1.95542,-2.06409c-1.08611,0 -1.95543,0.65199 -2.60742,1.95543l-0.86876,-0.326c0.94048,-2.46124 2.60741,-3.72882 4.99694,-3.80218c2.24391,0.14617 3.47619,1.15947 3.69351,3.04153c0,1.44905 -0.97743,2.75303 -2.93286,3.91029l0.10867,0c2.60741,0.14618 4.01951,1.70224 4.23684,4.67096c-0.29015,3.98365 -2.60741,6.08305 -6.95237,6.30038c-2.46288,-0.14618 -3.80218,-0.86932 -4.01951,-2.17275c0.07115,-0.86877 0.57864,-1.33929 1.52076,-1.4121c0.57862,0 1.15781,0.3988 1.73809,1.19532c0.57862,0.86877 1.23064,1.30343 1.95543,1.30343c1.52077,-0.14397 2.31672,-1.4121 2.39009,-3.80218c-0.0728,-2.53405 -1.01495,-3.87334 -2.82475,-4.01951c-0.14618,0 -0.29013,0.03751 -0.43466,0.10866c-0.14618,0.07282 -0.29015,0.10866 -0.43466,0.10866l-0.43411,-0.75899z"></path></g><g id="shuzi_c_1" transform="translate(-50,-50)"><rect height="17.9" width="11.1" y="41.05" x="44.45" stroke-width="0" fill="#ffffff"></rect><path fill="black" d="m51.71225,56.72592c0,0.80306 0.32822,1.2029 0.98409,1.2029l1.85934,0l0,0.98408l-8.96846,0l0,-0.98408l1.74994,0c0.65642,-0.07163 0.98409,-0.43763 0.98409,-1.0935l0,-12.24893c-1.16737,0.65644 -2.26085,1.13125 -3.28105,1.42172l-0.43762,-0.76528c2.18699,-1.09351 4.04689,-2.47802 5.57743,-4.15573l1.53112,0l0,15.63882l0.00111,0l0.00001,0z"></path></g><g id="yanyinfu" transform="translate(-50,-50)"><rect height="17.9" width="11.1" y="41.05" x="44.45" stroke-width="0" fill="#ffffff"></rect><rect height="3.2" width="11" y="48.4" x="44.5" stroke-width="null" fill="#1b1b1b"></rect></g><g id="xiaojiexian" transform="translate(-50,-50)"><rect fill="#ffffff" stroke-width="0" x="45.05" y="35.85" width="9.9" height="28.4"></rect><rect height="29" width="1.5" y="35.5" x="49.25" stroke-width="null" fill="#1b1b1b"></rect></g><g id="shuzi_c_6" transform="translate(-50,-50)"><rect height="17.9" width="11.1" y="41.05" x="44.45" stroke-width="0" fill="#ffffff"></rect><path fill="black" d="m54.20902,41.95901c-3.38233,1.22426 -5.39627,3.56153 -6.04348,7.01512c0.93435,-0.64775 1.90543,-0.97109 2.91377,-0.97109c2.94941,0.14523 4.4959,1.90709 4.64057,5.28833c-0.21591,3.59825 -2.05065,5.46696 -5.50423,5.6122c-3.74183,-0.14524 -5.72017,-2.48251 -5.93554,-7.01512c0.28661,-5.82813 3.41632,-9.42473 9.38911,-10.79202l0.53979,0.86257zm-3.99337,7.33899c-0.79243,0 -1.54814,0.32388 -2.26658,0.97108c0,0.07233 0,0.21592 0,0.43183c-0.07233,0.79243 -0.10796,1.51088 -0.10796,2.15862c0,3.45358 0.75517,5.18037 2.26659,5.18037c1.51086,0.07235 2.19368,-1.40291 2.05066,-4.42466c0.14357,-2.94995 -0.50418,-4.38849 -1.94272,-4.31724z"></path></g><g id="shuzi_c_2" transform="translate(-50,-50)"><rect height="17.9" width="11.1" y="41.05" x="44.45" stroke-width="0" fill="#ffffff"></rect><path fill="black" d="m44.23404,57.96309c0.29169,-0.36531 0.73117,-0.84104 1.31789,-1.42776c4.61288,-4.68482 6.66194,-7.8705 6.15051,-9.55537c-0.07361,-2.34241 -1.0262,-3.55098 -2.85551,-3.6246c-1.68486,0.14779 -2.74564,1.20857 -3.18512,3.18512l-1.09814,0c0.58504,-3.51473 2.45228,-5.34404 5.60115,-5.49184c3.07526,0.21974 4.72275,1.86723 4.9425,4.94249c0.14612,1.90516 -1.13607,3.99158 -3.84435,6.26038c-1.61124,1.46568 -2.85551,2.70996 -3.73447,3.73448l5.27211,0c1.24426,0.07362 1.93918,-0.6213 2.08697,-2.08698l0.8784,0l-0.54879,5.05236l-10.98313,0l0,-0.98827z"></path></g><g id="shuzi_c_7" transform="translate(-50,-50)"><rect height="17.9" width="11.1" y="41.05" x="44.45" stroke-width="0" fill="#ffffff"></rect><path fill="black" d="m53.05094,44.17476l-5.65846,0c-0.88795,0 -1.44293,0.111 -1.66436,0.33298c-0.29636,0.1493 -0.51834,0.62934 -0.66595,1.44236l-0.99839,0l0.44398,-4.88206l11.42848,0l0,1.10938l-6.43599,16.75452l-2.88472,0l6.43542,-14.75719z"></path></g><g id="shuzi_c_4" transform="translate(-50,-50)"><rect height="17.9" width="11.1" y="41.05" x="44.45" stroke-width="0" fill="#ffffff"></rect><path fill="black" d="m50.16211,54.39056l-6.07059,0l0,-1.19232l8.02201,-12.14174l1.40976,0l0,11.49109l2.38519,0l0,1.84297l-2.38519,0l0,4.55295l-3.36062,0l0,-4.55295l-0.00056,0zm0,-8.45579l-0.10844,0l-4.22763,6.61282l4.33606,0l0,-6.61282z"></path></g><g id="jieshufu" transform="translate(-50,-50)"><rect fill="#ffffff" stroke-width="0" x="42.45" y="35.65" width="11.7" height="28.4"></rect><rect height="29" width="1" y="35.5" x="45.65" stroke-width="null" fill="#1b1b1b"></rect><rect height="29" width="2.4" y="35.5" x="48.35" stroke-width="null" fill="#1b1b1b"></rect></g><g id="yingao_gao" transform="translate(-50,-50)"><ellipse ry="1.9" rx="1.9" cy="36" cx="49.3" fill="#1b1b1b"></ellipse></g><g id="huxifu" transform="translate(-50,-50)"><path d="m45.7,32.81284l8.6,3.48183l-8.51313,3.44702" stroke-linecap="null" stroke-linejoin="null" stroke-width="null" fill="none" transform="rotate(90 50,36.277267456054695) " stroke="#1b1b1b"></path></g><g id="fudian" transform="translate(-50,-50)"><ellipse fill="#1b1b1b" cx="62.35" cy="49.75" rx="2.45" ry="2.45"></ellipse></g><g id="yingao_di" transform="translate(-50,-50)"><ellipse ry="1.9" rx="1.9" cy="63" cx="49.3" fill="#1b1b1b"></ellipse></g></defs>
<text x="420" y="110" dy="30.078" text-anchor="middle" fill="#1b1b1b" style="font-weight:bold;" font-size="36" font-family="auto">左右配合2--送别</text>
<use x="80" y="176" xlink:href="#diaohao_fu" xmlns:xlink="http://www.w3.org/1999/xlink"></use>
<use x="120" y="176" xlink:href="#diaohao_zimu_c" xmlns:xlink="http://www.w3.org/1999/xlink"></use>
<use x="130" y="176" xlink:href="#paihao_xian" xmlns:xlink="http://www.w3.org/1999/xlink"></use>
<use x="140" y="164" xlink:href="#shuzi_c_bian_4" xmlns:xlink="http://www.w3.org/1999/xlink"></use>
<use x="140" y="188" xlink:href="#shuzi_c_bian_4" fill="#414141" xmlns:xlink="http://www.w3.org/1999/xlink"></use>
<text x="760" y="196" dy="-2.632" text-anchor="end" fill="#1b1b1b" font-size="16" font-family="auto">陶笛日记</text>
<use x="83" y="236" xlink:href="#shuzi_c_5" time="1" audio="5" notepos="0_1_1" code="5" xmlns:xlink="http://www.w3.org/1999/xlink"></use>
<use x="115.7358490566" y="236" xlink:href="#shuzi_c_3" time="0.5" audio="3" notepos="0_1_2" code="3(/" xmlns:xlink="http://www.w3.org/1999/xlink"></use>
<use x="137.55974842767" y="236" xlink:href="#shuzi_c_5" time="0.5" audio="5" notepos="0_1_3" code="5/)" xmlns:xlink="http://www.w3.org/1999/xlink"></use>
<use x="170.29559748428" y="236" xlink:href="#shuzi_c_1" time="1" audio="1'" notepos="0_1_4" code="1'" xmlns:xlink="http://www.w3.org/1999/xlink"></use>
<use x="203.03144654088" y="236" xlink:href="#yanyinfu" time="1" audio="" notepos="0_1_5" code="-&amp;hx" xmlns:xlink="http://www.w3.org/1999/xlink"></use>
<use x="233.58490566038" y="236" xlink:href="#xiaojiexian" notepos="0_1_6" time="0" audio="" code="|" xmlns:xlink="http://www.w3.org/1999/xlink"></use>
<use x="264.13836477987" y="236" xlink:href="#shuzi_c_6" time="1" audio="6" notepos="0_1_7" code="6" xmlns:xlink="http://www.w3.org/1999/xlink"></use>
<use x="296.87421383648" y="236" xlink:href="#shuzi_c_1" time="1" audio="1'" notepos="0_1_8" code="1'" xmlns:xlink="http://www.w3.org/1999/xlink"></use>
<use x="329.61006289308" y="236" xlink:href="#shuzi_c_5" time="1" audio="5" notepos="0_1_9" code="5" xmlns:xlink="http://www.w3.org/1999/xlink"></use>
<use x="362.34591194969" y="236" xlink:href="#yanyinfu" time="1" audio="" notepos="0_1_10" code="-&amp;hx" xmlns:xlink="http://www.w3.org/1999/xlink"></use>
<use x="392.89937106918" y="236" xlink:href="#xiaojiexian" notepos="0_1_11" time="0" audio="" code="|" xmlns:xlink="http://www.w3.org/1999/xlink"></use>
<use x="423.45283018868" y="236" xlink:href="#shuzi_c_5" time="1" audio="5" notepos="0_1_12" code="5" xmlns:xlink="http://www.w3.org/1999/xlink"></use>
<use x="456.18867924528" y="236" xlink:href="#shuzi_c_1" time="0.5" audio="1" notepos="0_1_13" code="1(/" xmlns:xlink="http://www.w3.org/1999/xlink"></use>
<use x="478.01257861635" y="236" xlink:href="#shuzi_c_2" time="0.5" audio="2" notepos="0_1_14" code="2/)" xmlns:xlink="http://www.w3.org/1999/xlink"></use>
<use x="510.74842767296" y="236" xlink:href="#shuzi_c_3" time="1" audio="3" notepos="0_1_15" code="3" xmlns:xlink="http://www.w3.org/1999/xlink"></use>
<use x="543.48427672956" y="236" xlink:href="#shuzi_c_2" time="0.5" audio="2" notepos="0_1_16" code="2(/" xmlns:xlink="http://www.w3.org/1999/xlink"></use>
<use x="565.30817610063" y="236" xlink:href="#shuzi_c_1" time="0.5" audio="1" notepos="0_1_17" code="1/)" xmlns:xlink="http://www.w3.org/1999/xlink"></use>
<use x="595.86163522013" y="236" xlink:href="#xiaojiexian" notepos="0_1_18" time="0" audio="" code="|" xmlns:xlink="http://www.w3.org/1999/xlink"></use>
<use x="626.41509433962" y="236" xlink:href="#shuzi_c_2" time="1" audio="2" notepos="0_1_19" code="2" xmlns:xlink="http://www.w3.org/1999/xlink"></use>
<use x="659.15094339623" y="236" xlink:href="#yanyinfu" time="1" audio="" notepos="0_1_20" code="-" xmlns:xlink="http://www.w3.org/1999/xlink"></use>
<use x="691.88679245283" y="236" xlink:href="#yanyinfu" time="1" audio="" notepos="0_1_21" code="-" xmlns:xlink="http://www.w3.org/1999/xlink"></use>
<use x="724.62264150943" y="236" xlink:href="#yanyinfu" time="1" audio="" notepos="0_1_22" code="-&amp;hx" xmlns:xlink="http://www.w3.org/1999/xlink"></use>
<use x="763" y="236" xlink:href="#xiaojiexian" notepos="0_1_23" time="0" audio="" code="|" xmlns:xlink="http://www.w3.org/1999/xlink"></use>
<use x="83" y="314" xlink:href="#shuzi_c_5" time="1" audio="5" notepos="0_2_1" code="5" xmlns:xlink="http://www.w3.org/1999/xlink"></use>
<use x="116.25878594249" y="314" xlink:href="#shuzi_c_3" time="0.5" audio="3" notepos="0_2_2" code="3(/" xmlns:xlink="http://www.w3.org/1999/xlink"></use>
<use x="138.43130990415" y="314" xlink:href="#shuzi_c_5" time="0.5" audio="5" notepos="0_2_3" code="5/)" xmlns:xlink="http://www.w3.org/1999/xlink"></use>
<use x="171.69009584665" y="314" xlink:href="#shuzi_c_1" time="1.5" audio="1'" notepos="0_2_4" code="1('." xmlns:xlink="http://www.w3.org/1999/xlink"></use>
<use x="216.03514376997" y="314" xlink:href="#shuzi_c_7" time="0.5" audio="7" notepos="0_2_5" code="7/)" xmlns:xlink="http://www.w3.org/1999/xlink"></use>
<use x="247.07667731629" y="314" xlink:href="#xiaojiexian" notepos="0_2_6" time="0" audio="" code="|" xmlns:xlink="http://www.w3.org/1999/xlink"></use>
<use x="278.11821086262" y="314" xlink:href="#shuzi_c_6" time="1" audio="6" notepos="0_2_7" code="6" xmlns:xlink="http://www.w3.org/1999/xlink"></use>
<use x="311.37699680511" y="314" xlink:href="#shuzi_c_1" time="1" audio="1'" notepos="0_2_8" code="1'" xmlns:xlink="http://www.w3.org/1999/xlink"></use>
<use x="344.6357827476" y="314" xlink:href="#shuzi_c_5" time="1" audio="5" notepos="0_2_9" code="5" xmlns:xlink="http://www.w3.org/1999/xlink"></use>
<use x="377.8945686901" y="314" xlink:href="#yanyinfu" time="1" audio="" notepos="0_2_10" code="-&amp;hx" xmlns:xlink="http://www.w3.org/1999/xlink"></use>
<use x="408.93610223642" y="314" xlink:href="#xiaojiexian" notepos="0_2_11" time="0" audio="" code="|" xmlns:xlink="http://www.w3.org/1999/xlink"></use>
<use x="439.97763578275" y="314" xlink:href="#shuzi_c_5" time="1" audio="5" notepos="0_2_12" code="5" xmlns:xlink="http://www.w3.org/1999/xlink"></use>
<use x="473.23642172524" y="314" xlink:href="#shuzi_c_2" time="0.5" audio="2" notepos="0_2_13" code="2(/" xmlns:xlink="http://www.w3.org/1999/xlink"></use>
<use x="495.4089456869" y="314" xlink:href="#shuzi_c_3" time="0.5" audio="3" notepos="0_2_14" code="3/)" xmlns:xlink="http://www.w3.org/1999/xlink"></use>
<use x="528.66773162939" y="314" xlink:href="#shuzi_c_4" time="1" audio="4" notepos="0_2_15" code="4" xmlns:xlink="http://www.w3.org/1999/xlink"></use>
<use x="561.92651757188" y="314" xlink:href="#shuzi_c_7" time="1" audio="7," notepos="0_2_16" code="7," xmlns:xlink="http://www.w3.org/1999/xlink"></use>
<use x="592.96805111821" y="314" xlink:href="#xiaojiexian" notepos="0_2_17" time="0" audio="" code="|" xmlns:xlink="http://www.w3.org/1999/xlink"></use>
<use x="624.00958466454" y="314" xlink:href="#shuzi_c_1" time="1" audio="1" notepos="0_2_18" code="1" xmlns:xlink="http://www.w3.org/1999/xlink"></use>
<use x="657.26837060703" y="314" xlink:href="#yanyinfu" time="1" audio="" notepos="0_2_19" code="-" xmlns:xlink="http://www.w3.org/1999/xlink"></use>
<use x="690.52715654952" y="314" xlink:href="#yanyinfu" time="1" audio="" notepos="0_2_20" code="-" xmlns:xlink="http://www.w3.org/1999/xlink"></use>
<use x="723.78594249201" y="314" xlink:href="#yanyinfu" time="1" audio="" notepos="0_2_21" code="-&amp;hx" xmlns:xlink="http://www.w3.org/1999/xlink"></use>
<use x="763" y="314" xlink:href="#xiaojiexian" notepos="0_2_22" time="0" audio="" code="|" xmlns:xlink="http://www.w3.org/1999/xlink"></use>
<use x="83" y="392" xlink:href="#shuzi_c_6" time="1" audio="6" notepos="0_3_1" code="6" xmlns:xlink="http://www.w3.org/1999/xlink"></use>
<use x="113.79881656805" y="392" xlink:href="#shuzi_c_1" time="1" audio="1'" notepos="0_3_2" code="1'" xmlns:xlink="http://www.w3.org/1999/xlink"></use>
<use x="144.59763313609" y="392" xlink:href="#shuzi_c_1" time="1" audio="1'" notepos="0_3_3" code="1'" xmlns:xlink="http://www.w3.org/1999/xlink"></use>
<use x="175.39644970414" y="392" xlink:href="#yanyinfu" time="1" audio="" notepos="0_3_4" code="-&amp;hx" xmlns:xlink="http://www.w3.org/1999/xlink"></use>
<use x="204.14201183432" y="392" xlink:href="#xiaojiexian" notepos="0_3_5" time="0" audio="" code="|" xmlns:xlink="http://www.w3.org/1999/xlink"></use>
<use x="232.8875739645" y="392" xlink:href="#shuzi_c_7" time="1" audio="7" notepos="0_3_6" code="7" xmlns:xlink="http://www.w3.org/1999/xlink"></use>
<use x="263.68639053254" y="392" xlink:href="#shuzi_c_6" time="0.5" audio="6" notepos="0_3_7" code="6(/" xmlns:xlink="http://www.w3.org/1999/xlink"></use>
<use x="284.21893491124" y="392" xlink:href="#shuzi_c_7" time="0.5" audio="7" notepos="0_3_8" code="7/)" xmlns:xlink="http://www.w3.org/1999/xlink"></use>
<use x="315.01775147929" y="392" xlink:href="#shuzi_c_1" time="1" audio="1'" notepos="0_3_9" code="1'" xmlns:xlink="http://www.w3.org/1999/xlink"></use>
<use x="345.81656804734" y="392" xlink:href="#yanyinfu" time="1" audio="" notepos="0_3_10" code="-&amp;hx" xmlns:xlink="http://www.w3.org/1999/xlink"></use>
<use x="374.56213017751" y="392" xlink:href="#xiaojiexian" notepos="0_3_11" time="0" audio="" code="|" xmlns:xlink="http://www.w3.org/1999/xlink"></use>
<use x="403.30769230769" y="392" xlink:href="#shuzi_c_6" time="0.5" audio="6" notepos="0_3_12" code="6(/" xmlns:xlink="http://www.w3.org/1999/xlink"></use>
<use x="423.84023668639" y="392" xlink:href="#shuzi_c_7" time="0.5" audio="7" notepos="0_3_13" code="7/)" xmlns:xlink="http://www.w3.org/1999/xlink"></use>
<use x="454.63905325444" y="392" xlink:href="#shuzi_c_1" time="0.5" audio="1'" notepos="0_3_14" code="1('/" xmlns:xlink="http://www.w3.org/1999/xlink"></use>
<use x="475.17159763314" y="392" xlink:href="#shuzi_c_6" time="0.5" audio="6" notepos="0_3_15" code="6/)" xmlns:xlink="http://www.w3.org/1999/xlink"></use>
<use x="505.97041420118" y="392" xlink:href="#shuzi_c_6" time="0.5" audio="6" notepos="0_3_16" code="6(/" xmlns:xlink="http://www.w3.org/1999/xlink"></use>
<use x="526.50295857988" y="392" xlink:href="#shuzi_c_5" time="0.5" audio="5" notepos="0_3_17" code="5/)" xmlns:xlink="http://www.w3.org/1999/xlink"></use>
<use x="557.30177514793" y="392" xlink:href="#shuzi_c_3" time="0.5" audio="3" notepos="0_3_18" code="3(/" xmlns:xlink="http://www.w3.org/1999/xlink"></use>
<use x="577.83431952663" y="392" xlink:href="#shuzi_c_1" time="0.5" audio="1" notepos="0_3_19" code="1/)" xmlns:xlink="http://www.w3.org/1999/xlink"></use>
<use x="606.5798816568" y="392" xlink:href="#xiaojiexian" notepos="0_3_20" time="0" audio="" code="|" xmlns:xlink="http://www.w3.org/1999/xlink"></use>
<use x="635.32544378698" y="392" xlink:href="#shuzi_c_2" time="1" audio="2" notepos="0_3_21" code="2" xmlns:xlink="http://www.w3.org/1999/xlink"></use>
<use x="666.12426035503" y="392" xlink:href="#yanyinfu" time="1" audio="" notepos="0_3_22" code="-" xmlns:xlink="http://www.w3.org/1999/xlink"></use>
<use x="696.92307692308" y="392" xlink:href="#yanyinfu" time="1" audio="" notepos="0_3_23" code="-" xmlns:xlink="http://www.w3.org/1999/xlink"></use>
<use x="727.72189349112" y="392" xlink:href="#yanyinfu" time="1" audio="" notepos="0_3_24" code="-&amp;hx" xmlns:xlink="http://www.w3.org/1999/xlink"></use>
<use x="763" y="392" xlink:href="#xiaojiexian" notepos="0_3_25" time="0" audio="" code="|" xmlns:xlink="http://www.w3.org/1999/xlink"></use>
<use x="83" y="470" xlink:href="#shuzi_c_5" time="1" audio="5" notepos="0_4_1" code="5" xmlns:xlink="http://www.w3.org/1999/xlink"></use>
<use x="116.25878594249" y="470" xlink:href="#shuzi_c_3" time="0.5" audio="3" notepos="0_4_2" code="3(/" xmlns:xlink="http://www.w3.org/1999/xlink"></use>
<use x="138.43130990415" y="470" xlink:href="#shuzi_c_5" time="0.5" audio="5" notepos="0_4_3" code="5/)" xmlns:xlink="http://www.w3.org/1999/xlink"></use>
<use x="171.69009584665" y="470" xlink:href="#shuzi_c_1" time="1.5" audio="1'" notepos="0_4_4" code="1('." xmlns:xlink="http://www.w3.org/1999/xlink"></use>
<use x="216.03514376997" y="470" xlink:href="#shuzi_c_7" time="0.5" audio="7" notepos="0_4_5" code="7/)" xmlns:xlink="http://www.w3.org/1999/xlink"></use>
<use x="247.07667731629" y="470" xlink:href="#xiaojiexian" notepos="0_4_6" time="0" audio="" code="|" xmlns:xlink="http://www.w3.org/1999/xlink"></use>
<use x="278.11821086262" y="470" xlink:href="#shuzi_c_6" time="1" audio="6" notepos="0_4_7" code="6" xmlns:xlink="http://www.w3.org/1999/xlink"></use>
<use x="311.37699680511" y="470" xlink:href="#shuzi_c_1" time="1" audio="1'" notepos="0_4_8" code="1'" xmlns:xlink="http://www.w3.org/1999/xlink"></use>
<use x="344.6357827476" y="470" xlink:href="#shuzi_c_5" time="1" audio="5" notepos="0_4_9" code="5" xmlns:xlink="http://www.w3.org/1999/xlink"></use>
<use x="377.8945686901" y="470" xlink:href="#yanyinfu" time="1" audio="" notepos="0_4_10" code="-&amp;hx" xmlns:xlink="http://www.w3.org/1999/xlink"></use>
<use x="408.93610223642" y="470" xlink:href="#xiaojiexian" notepos="0_4_11" time="0" audio="" code="|" xmlns:xlink="http://www.w3.org/1999/xlink"></use>
<use x="439.97763578275" y="470" xlink:href="#shuzi_c_5" time="1" audio="5" notepos="0_4_12" code="5" xmlns:xlink="http://www.w3.org/1999/xlink"></use>
<use x="473.23642172524" y="470" xlink:href="#shuzi_c_2" time="0.5" audio="2" notepos="0_4_13" code="2(/" xmlns:xlink="http://www.w3.org/1999/xlink"></use>
<use x="495.4089456869" y="470" xlink:href="#shuzi_c_3" time="0.5" audio="3" notepos="0_4_14" code="3/)" xmlns:xlink="http://www.w3.org/1999/xlink"></use>
<use x="528.66773162939" y="470" xlink:href="#shuzi_c_4" time="1" audio="4" notepos="0_4_15" code="4" xmlns:xlink="http://www.w3.org/1999/xlink"></use>
<use x="561.92651757188" y="470" xlink:href="#shuzi_c_7" time="1" audio="7," notepos="0_4_16" code="7," xmlns:xlink="http://www.w3.org/1999/xlink"></use>
<use x="592.96805111821" y="470" xlink:href="#xiaojiexian" notepos="0_4_17" time="0" audio="" code="|" xmlns:xlink="http://www.w3.org/1999/xlink"></use>
<use x="624.00958466454" y="470" xlink:href="#shuzi_c_1" time="1" audio="1" notepos="0_4_18" code="1" xmlns:xlink="http://www.w3.org/1999/xlink"></use>
<use x="657.26837060703" y="470" xlink:href="#yanyinfu" time="1" audio="" notepos="0_4_19" code="-" xmlns:xlink="http://www.w3.org/1999/xlink"></use>
<use x="690.52715654952" y="470" xlink:href="#yanyinfu" time="1" audio="" notepos="0_4_20" code="-" xmlns:xlink="http://www.w3.org/1999/xlink"></use>
<use x="723.78594249201" y="470" xlink:href="#yanyinfu" time="1" audio="" notepos="0_4_21" code="-&amp;hx" xmlns:xlink="http://www.w3.org/1999/xlink"></use>
<use x="763" y="470" xlink:href="#jieshufu" notepos="0_4_22" time="0" audio="" code="|j" xmlns:xlink="http://www.w3.org/1999/xlink"></use>
<line x1="109.7358490566" y1="249" x2="143.55974842767" y2="249" data-type="jianshixian" stroke-width="2" stroke="#1b1b1b"></line>
<line x1="450.18867924528" y1="249" x2="484.01257861635" y2="249" data-type="jianshixian" stroke-width="2" stroke="#1b1b1b"></line>
<line x1="537.48427672956" y1="249" x2="571.30817610063" y2="249" data-type="jianshixian" stroke-width="2" stroke="#1b1b1b"></line>
<line x1="110.25878594249" y1="327" x2="144.43130990415" y2="327" data-type="jianshixian" stroke-width="2" stroke="#1b1b1b"></line>
<line x1="210.03514376997" y1="327" x2="222.03514376997" y2="327" data-type="jianshixian" stroke-width="2" stroke="#1b1b1b"></line>
<line x1="467.23642172524" y1="327" x2="501.4089456869" y2="327" data-type="jianshixian" stroke-width="2" stroke="#1b1b1b"></line>
<line x1="257.68639053254" y1="405" x2="290.21893491124" y2="405" data-type="jianshixian" stroke-width="2" stroke="#1b1b1b"></line>
<line x1="397.30769230769" y1="405" x2="429.84023668639" y2="405" data-type="jianshixian" stroke-width="2" stroke="#1b1b1b"></line>
<line x1="448.63905325444" y1="405" x2="481.17159763314" y2="405" data-type="jianshixian" stroke-width="2" stroke="#1b1b1b"></line>
<line x1="499.97041420118" y1="405" x2="532.50295857988" y2="405" data-type="jianshixian" stroke-width="2" stroke="#1b1b1b"></line>
<line x1="551.30177514793" y1="405" x2="583.83431952663" y2="405" data-type="jianshixian" stroke-width="2" stroke="#1b1b1b"></line>
<line x1="110.25878594249" y1="483" x2="144.43130990415" y2="483" data-type="jianshixian" stroke-width="2" stroke="#1b1b1b"></line>
<line x1="210.03514376997" y1="483" x2="222.03514376997" y2="483" data-type="jianshixian" stroke-width="2" stroke="#1b1b1b"></line>
<line x1="467.23642172524" y1="483" x2="501.4089456869" y2="483" data-type="jianshixian" stroke-width="2" stroke="#1b1b1b"></line>
<use x="170.29559748428" y="236" xlink:href="#yingao_gao" xmlns:xlink="http://www.w3.org/1999/xlink"></use>
<use x="220.49056603774" y="236" xlink:href="#huxifu" xmlns:xlink="http://www.w3.org/1999/xlink"></use>
<use x="296.87421383648" y="236" xlink:href="#yingao_gao" xmlns:xlink="http://www.w3.org/1999/xlink"></use>
<use x="379.80503144654" y="236" xlink:href="#huxifu" xmlns:xlink="http://www.w3.org/1999/xlink"></use>
<use x="742.08176100629" y="236" xlink:href="#huxifu" xmlns:xlink="http://www.w3.org/1999/xlink"></use>
<use x="171.69009584665" y="314" xlink:href="#yingao_gao" xmlns:xlink="http://www.w3.org/1999/xlink"></use>
<use x="171.69009584665" y="314" xlink:href="#fudian" xmlns:xlink="http://www.w3.org/1999/xlink"></use>
<use x="311.37699680511" y="314" xlink:href="#yingao_gao" xmlns:xlink="http://www.w3.org/1999/xlink"></use>
<use x="395.63258785942" y="314" xlink:href="#huxifu" xmlns:xlink="http://www.w3.org/1999/xlink"></use>
<use x="561.92651757188" y="315" xlink:href="#yingao_di" xmlns:xlink="http://www.w3.org/1999/xlink"></use>
<use x="741.52396166134" y="314" xlink:href="#huxifu" xmlns:xlink="http://www.w3.org/1999/xlink"></use>
<use x="113.79881656805" y="392" xlink:href="#yingao_gao" xmlns:xlink="http://www.w3.org/1999/xlink"></use>
<use x="144.59763313609" y="392" xlink:href="#yingao_gao" xmlns:xlink="http://www.w3.org/1999/xlink"></use>
<use x="191.8224852071" y="392" xlink:href="#huxifu" xmlns:xlink="http://www.w3.org/1999/xlink"></use>
<use x="315.01775147929" y="392" xlink:href="#yingao_gao" xmlns:xlink="http://www.w3.org/1999/xlink"></use>
<use x="362.2426035503" y="392" xlink:href="#huxifu" xmlns:xlink="http://www.w3.org/1999/xlink"></use>
<use x="454.63905325444" y="392" xlink:href="#yingao_gao" xmlns:xlink="http://www.w3.org/1999/xlink"></use>
<use x="744.14792899408" y="392" xlink:href="#huxifu" xmlns:xlink="http://www.w3.org/1999/xlink"></use>
<use x="171.69009584665" y="470" xlink:href="#yingao_gao" xmlns:xlink="http://www.w3.org/1999/xlink"></use>
<use x="171.69009584665" y="470" xlink:href="#fudian" xmlns:xlink="http://www.w3.org/1999/xlink"></use>
<use x="311.37699680511" y="470" xlink:href="#yingao_gao" xmlns:xlink="http://www.w3.org/1999/xlink"></use>
<use x="395.63258785942" y="470" xlink:href="#huxifu" xmlns:xlink="http://www.w3.org/1999/xlink"></use>
<use x="561.92651757188" y="471" xlink:href="#yingao_di" xmlns:xlink="http://www.w3.org/1999/xlink"></use>
<use x="741.52396166134" y="470" xlink:href="#huxifu" xmlns:xlink="http://www.w3.org/1999/xlink"></use>
<path d="M 116.7358490566,220 C 122.28301886792,210,131.01257861635,210,136.55974842767,220 M 136.55974842767,220 C  131.01257861635,211,122.28301886792,211,116.7358490566,220" stroke-width="0.5" stroke="#1b1b1b"></path>
<path d="M 457.18867924528,220 C 462.7358490566,210,471.46540880503,210,477.01257861635,220 M 477.01257861635,220 C  471.46540880503,211,462.7358490566,211,457.18867924528,220" stroke-width="0.5" stroke="#1b1b1b"></path>
<path d="M 544.48427672956,220 C 550.03144654088,210,558.76100628931,210,564.30817610063,220 M 564.30817610063,220 C  558.76100628931,211,550.03144654088,211,544.48427672956,220" stroke-width="0.5" stroke="#1b1b1b"></path>
<path d="M 117.25878594249,298 C 122.91054313099,288,131.77955271565,288,137.43130990415,298 M 137.43130990415,298 C  131.77955271565,289,122.91054313099,289,117.25878594249,298" stroke-width="0.5" stroke="#1b1b1b"></path>
<path d="M 172.69009584665,293 C 184.99361022364,283,202.73162939297,283,215.03514376997,293 M 215.03514376997,293 C  202.73162939297,284,184.99361022364,284,172.69009584665,293" stroke-width="0.5" stroke="#1b1b1b"></path>
<path d="M 474.23642172524,298 C 479.88817891374,288,488.7571884984,288,494.4089456869,298 M 494.4089456869,298 C  488.7571884984,289,479.88817891374,289,474.23642172524,298" stroke-width="0.5" stroke="#1b1b1b"></path>
<path d="M 264.68639053254,376 C 269.84615384615,366,278.05917159763,366,283.21893491124,376 M 283.21893491124,376 C  278.05917159763,367,269.84615384615,367,264.68639053254,376" stroke-width="0.5" stroke="#1b1b1b"></path>
<path d="M 404.30769230769,376 C 409.4674556213,366,417.68047337278,366,422.84023668639,376 M 422.84023668639,376 C  417.68047337278,367,409.4674556213,367,404.30769230769,376" stroke-width="0.5" stroke="#1b1b1b"></path>
<path d="M 455.63905325444,371 C 460.79881656805,361,469.01183431953,361,474.17159763314,371 M 474.17159763314,371 C  469.01183431953,362,460.79881656805,362,455.63905325444,371" stroke-width="0.5" stroke="#1b1b1b"></path>
<path d="M 506.97041420118,376 C 512.13017751479,366,520.34319526627,366,525.50295857988,376 M 525.50295857988,376 C  520.34319526627,367,512.13017751479,367,506.97041420118,376" stroke-width="0.5" stroke="#1b1b1b"></path>
<path d="M 558.30177514793,376 C 563.46153846154,366,571.67455621302,366,576.83431952663,376 M 576.83431952663,376 C  571.67455621302,367,563.46153846154,367,558.30177514793,376" stroke-width="0.5" stroke="#1b1b1b"></path>
<path d="M 117.25878594249,454 C 122.91054313099,444,131.77955271565,444,137.43130990415,454 M 137.43130990415,454 C  131.77955271565,445,122.91054313099,445,117.25878594249,454" stroke-width="0.5" stroke="#1b1b1b"></path>
<path d="M 172.69009584665,449 C 184.99361022364,439,202.73162939297,439,215.03514376997,449 M 215.03514376997,449 C  202.73162939297,440,184.99361022364,440,172.69009584665,449" stroke-width="0.5" stroke="#1b1b1b"></path>
<path d="M 474.23642172524,454 C 479.88817891374,444,488.7571884984,444,494.4089456869,454 M 494.4089456869,454 C  488.7571884984,445,479.88817891374,445,474.23642172524,454" stroke-width="0.5" stroke="#1b1b1b"></path>
<g id="custom"></g></svg>
