<svg width="840" height="500" version="1.1" viewBox="0 0 840 500" encoding="UTF-8" xmlns="http://www.w3.org/2000/svg"><rect x="0" y="0" height="100%" width="100%" fill="#ffffff"></rect><defs>
<g id="diaohao_fu" transform="translate(-50,-50)"><path d="m63.90001,57.81227l-8.81873,0l0,-1.70001l3.45433,0l0,-11.7568l-3.53561,1.04459l0,-1.80243l5.46599,-1.59762l0,14.11224l3.43402,0l0,1.70001l0,0.00001l0,0.00001z" fill="#1b1b1b"></path><rect height="2" width="11" y="46.85897" x="68" stroke-width="33" fill="#1b1b1b"></rect><rect height="2" width="11" y="51.32479" x="68" stroke-width="33" fill="#1b1b1b"></rect></g><g id="diaohao_zimu_c" transform="translate(-50,-50)"><path fill="#1b1b1b" d="m55.85,42.82703q-1.71571,-0.90955 -4.3203,-0.90955q-3.36943,0 -5.37457,2.13949t-2.00512,5.65363q0,3.76219 2.26351,6.06705t5.73631,2.30486q2.23251,0 3.70017,-0.64081l0,-2.10849q-1.67438,0.93021 -3.6795,0.93021q-2.60459,0 -4.25832,-1.73639t-1.65372,-4.69241q0,-2.81131 1.54002,-4.46502t4.02058,-1.65371q2.31519,0 4.03091,1.05424l0,-1.94311l0.00002,0.00001l0.00002,0z"></path></g><g id="paihao_xian" transform="translate(-50,-50)"><rect fill="#1b1b1b" stroke-width="33" stroke-linejoin="null" stroke-linecap="null" x="51" y="49" width="21" height="2"></rect></g><g id="shuzi_c_bian_2" transform="translate(-50,-50)"><path d="m45.36745,56.39778c0.23435,-0.2935 0.58745,-0.67572 1.05883,-1.1471c3.70613,-3.76393 5.3524,-6.3234 4.9415,-7.67707c-0.05914,-1.88197 -0.82448,-2.85296 -2.2942,-2.91212c-1.35367,0.11874 -2.20593,0.971 -2.55902,2.55903l-0.88228,0c0.47004,-2.82384 1.97023,-4.29356 4.50013,-4.41231c2.47076,0.17654 3.7944,1.50018 3.97094,3.97094c0.1174,1.53066 -0.91275,3.20695 -3.08866,5.02978c-1.29452,1.17757 -2.2942,2.17726 -3.00039,3.00039l4.23577,0c0.99967,0.05914 1.558,-0.49918 1.67673,-1.67675l0.70573,0l-0.44092,4.05922l-8.82417,0l0,-0.794l-0.00002,-0.00001z" fill="black"></path></g><g id="shuzi_c_bian_4" transform="translate(-50,-50)"><path d="m50.13028,53.52836l-4.87848,0l0,-0.95818l6.44669,-9.7574l1.13291,0l0,9.23452l1.9168,0l0,1.48106l-1.9168,0l0,3.65886l-2.70068,0l0,-3.65886l-0.00045,0zm0,-6.79528l-0.08714,0l-3.39743,5.31422l3.48457,0l0,-5.31422l0,0z" fill="black"></path></g><g id="shuzi_c_5" transform="translate(-50,-50)"><rect height="17.9" width="11.1" y="41.05" x="44.45" stroke-width="0" fill="#ffffff"></rect><path fill="black" d="m46.03386,41.2363l6.28103,0c0.58697,0 0.91767,-0.1824 0.99153,-0.55116l0.88186,0l-0.44093,3.30586l-6.72194,0l-0.11024,3.4161c0.73358,-0.22047 1.50465,-0.33071 2.31377,-0.33071c3.89339,0.22047 5.95088,2.16774 6.17079,5.84065c-0.29433,3.82066 -2.60865,5.84066 -6.94241,6.06112c-2.42457,-0.07386 -3.71043,-0.77164 -3.85703,-2.09386c0.07218,-0.95404 0.55059,-1.43302 1.43246,-1.43302c0.66141,0 1.24837,0.44093 1.76316,1.32222c0.51311,0.80912 1.06427,1.21257 1.65292,1.21257c1.61488,-0.14661 2.49675,-1.39497 2.64503,-3.7468c-0.07386,-2.64502 -1.21256,-4.03943 -3.41608,-4.18715c-0.73527,0 -1.47052,0.18409 -2.20411,0.55059l-0.77106,-0.44093l0.33126,-8.92548z"></path></g><g id="shuzi_c_1" transform="translate(-50,-50)"><rect height="17.9" width="11.1" y="41.05" x="44.45" stroke-width="0" fill="#ffffff"></rect><path fill="black" d="m51.71225,56.72592c0,0.80306 0.32822,1.2029 0.98409,1.2029l1.85934,0l0,0.98408l-8.96846,0l0,-0.98408l1.74994,0c0.65642,-0.07163 0.98409,-0.43763 0.98409,-1.0935l0,-12.24893c-1.16737,0.65644 -2.26085,1.13125 -3.28105,1.42172l-0.43762,-0.76528c2.18699,-1.09351 4.04689,-2.47802 5.57743,-4.15573l1.53112,0l0,15.63882l0.00111,0l0.00001,0z"></path></g><g id="xiaojiexian" transform="translate(-50,-50)"><rect fill="#ffffff" stroke-width="0" x="45.05" y="35.85" width="9.9" height="28.4"></rect><rect height="29" width="1.5" y="35.5" x="49.25" stroke-width="null" fill="#1b1b1b"></rect></g><g id="shuzi_c_2" transform="translate(-50,-50)"><rect height="17.9" width="11.1" y="41.05" x="44.45" stroke-width="0" fill="#ffffff"></rect><path fill="black" d="m44.23404,57.96309c0.29169,-0.36531 0.73117,-0.84104 1.31789,-1.42776c4.61288,-4.68482 6.66194,-7.8705 6.15051,-9.55537c-0.07361,-2.34241 -1.0262,-3.55098 -2.85551,-3.6246c-1.68486,0.14779 -2.74564,1.20857 -3.18512,3.18512l-1.09814,0c0.58504,-3.51473 2.45228,-5.34404 5.60115,-5.49184c3.07526,0.21974 4.72275,1.86723 4.9425,4.94249c0.14612,1.90516 -1.13607,3.99158 -3.84435,6.26038c-1.61124,1.46568 -2.85551,2.70996 -3.73447,3.73448l5.27211,0c1.24426,0.07362 1.93918,-0.6213 2.08697,-2.08698l0.8784,0l-0.54879,5.05236l-10.98313,0l0,-0.98827z"></path></g><g id="shuzi_c_7" transform="translate(-50,-50)"><rect height="17.9" width="11.1" y="41.05" x="44.45" stroke-width="0" fill="#ffffff"></rect><path fill="black" d="m53.05094,44.17476l-5.65846,0c-0.88795,0 -1.44293,0.111 -1.66436,0.33298c-0.29636,0.1493 -0.51834,0.62934 -0.66595,1.44236l-0.99839,0l0.44398,-4.88206l11.42848,0l0,1.10938l-6.43599,16.75452l-2.88472,0l6.43542,-14.75719z"></path></g><g id="shuzi_c_3" transform="translate(-50,-50)"><rect height="17.9" width="11.1" y="41.05" x="44.45" stroke-width="0" fill="#ffffff"></rect><path fill="black" d="m47.99024,49.51211c1.95488,-1.59247 2.8959,-3.00457 2.8242,-4.23684c-0.0728,-1.30343 -0.72481,-1.99072 -1.95542,-2.06409c-1.08611,0 -1.95543,0.65199 -2.60742,1.95543l-0.86876,-0.326c0.94048,-2.46124 2.60741,-3.72882 4.99694,-3.80218c2.24391,0.14617 3.47619,1.15947 3.69351,3.04153c0,1.44905 -0.97743,2.75303 -2.93286,3.91029l0.10867,0c2.60741,0.14618 4.01951,1.70224 4.23684,4.67096c-0.29015,3.98365 -2.60741,6.08305 -6.95237,6.30038c-2.46288,-0.14618 -3.80218,-0.86932 -4.01951,-2.17275c0.07115,-0.86877 0.57864,-1.33929 1.52076,-1.4121c0.57862,0 1.15781,0.3988 1.73809,1.19532c0.57862,0.86877 1.23064,1.30343 1.95543,1.30343c1.52077,-0.14397 2.31672,-1.4121 2.39009,-3.80218c-0.0728,-2.53405 -1.01495,-3.87334 -2.82475,-4.01951c-0.14618,0 -0.29013,0.03751 -0.43466,0.10866c-0.14618,0.07282 -0.29015,0.10866 -0.43466,0.10866l-0.43411,-0.75899z"></path></g><g id="shuzi_c_4" transform="translate(-50,-50)"><rect height="17.9" width="11.1" y="41.05" x="44.45" stroke-width="0" fill="#ffffff"></rect><path fill="black" d="m50.16211,54.39056l-6.07059,0l0,-1.19232l8.02201,-12.14174l1.40976,0l0,11.49109l2.38519,0l0,1.84297l-2.38519,0l0,4.55295l-3.36062,0l0,-4.55295l-0.00056,0zm0,-8.45579l-0.10844,0l-4.22763,6.61282l4.33606,0l0,-6.61282z"></path></g><g id="yanyinfu" transform="translate(-50,-50)"><rect height="17.9" width="11.1" y="41.05" x="44.45" stroke-width="0" fill="#ffffff"></rect><rect height="3.2" width="11" y="48.4" x="44.5" stroke-width="null" fill="#1b1b1b"></rect></g><g id="shuzi_c_6" transform="translate(-50,-50)"><rect height="17.9" width="11.1" y="41.05" x="44.45" stroke-width="0" fill="#ffffff"></rect><path fill="black" d="m54.20902,41.95901c-3.38233,1.22426 -5.39627,3.56153 -6.04348,7.01512c0.93435,-0.64775 1.90543,-0.97109 2.91377,-0.97109c2.94941,0.14523 4.4959,1.90709 4.64057,5.28833c-0.21591,3.59825 -2.05065,5.46696 -5.50423,5.6122c-3.74183,-0.14524 -5.72017,-2.48251 -5.93554,-7.01512c0.28661,-5.82813 3.41632,-9.42473 9.38911,-10.79202l0.53979,0.86257zm-3.99337,7.33899c-0.79243,0 -1.54814,0.32388 -2.26658,0.97108c0,0.07233 0,0.21592 0,0.43183c-0.07233,0.79243 -0.10796,1.51088 -0.10796,2.15862c0,3.45358 0.75517,5.18037 2.26659,5.18037c1.51086,0.07235 2.19368,-1.40291 2.05066,-4.42466c0.14357,-2.94995 -0.50418,-4.38849 -1.94272,-4.31724z"></path></g><g id="jieshufu" transform="translate(-50,-50)"><rect fill="#ffffff" stroke-width="0" x="42.45" y="35.65" width="11.7" height="28.4"></rect><rect height="29" width="1" y="35.5" x="45.65" stroke-width="null" fill="#1b1b1b"></rect><rect height="29" width="2.4" y="35.5" x="48.35" stroke-width="null" fill="#1b1b1b"></rect></g><g id="yingao_gao" transform="translate(-50,-50)"><ellipse ry="1.9" rx="1.9" cy="36" cx="49.3" fill="#1b1b1b"></ellipse></g><g id="yingao_di" transform="translate(-50,-50)"><ellipse ry="1.9" rx="1.9" cy="63" cx="49.3" fill="#1b1b1b"></ellipse></g></defs>
<text x="420" y="110" dy="30.078" text-anchor="middle" fill="#1b1b1b" style="font-weight:bold;" font-size="36" font-family="auto">大跳练习</text>
<use x="80" y="176" xlink:href="#diaohao_fu" xmlns:xlink="http://www.w3.org/1999/xlink"></use>
<use x="120" y="176" xlink:href="#diaohao_zimu_c" xmlns:xlink="http://www.w3.org/1999/xlink"></use>
<use x="130" y="176" xlink:href="#paihao_xian" xmlns:xlink="http://www.w3.org/1999/xlink"></use>
<use x="140" y="164" xlink:href="#shuzi_c_bian_2" xmlns:xlink="http://www.w3.org/1999/xlink"></use>
<use x="140" y="188" xlink:href="#shuzi_c_bian_4" fill="#414141" xmlns:xlink="http://www.w3.org/1999/xlink"></use>
<text x="760" y="196" dy="-2.632" text-anchor="end" fill="#1b1b1b" font-size="16" font-family="auto">陶笛日记</text>
<use x="83" y="236" xlink:href="#shuzi_c_5" time="1" audio="5" notepos="0_1_1" code="5" xmlns:xlink="http://www.w3.org/1999/xlink"></use>
<use x="118.05050505051" y="236" xlink:href="#shuzi_c_1" time="1" audio="1" notepos="0_1_2" code="1" xmlns:xlink="http://www.w3.org/1999/xlink"></use>
<use x="150.76430976431" y="236" xlink:href="#xiaojiexian" notepos="0_1_3" time="0" audio="" code="|" xmlns:xlink="http://www.w3.org/1999/xlink"></use>
<use x="183.47811447811" y="236" xlink:href="#shuzi_c_2" time="1" audio="2" notepos="0_1_4" code="2" xmlns:xlink="http://www.w3.org/1999/xlink"></use>
<use x="218.52861952862" y="236" xlink:href="#shuzi_c_7" time="1" audio="7" notepos="0_1_5" code="7" xmlns:xlink="http://www.w3.org/1999/xlink"></use>
<use x="251.24242424242" y="236" xlink:href="#xiaojiexian" notepos="0_1_6" time="0" audio="" code="|" xmlns:xlink="http://www.w3.org/1999/xlink"></use>
<use x="283.95622895623" y="236" xlink:href="#shuzi_c_1" time="1" audio="1" notepos="0_1_7" code="1" xmlns:xlink="http://www.w3.org/1999/xlink"></use>
<use x="319.00673400673" y="236" xlink:href="#shuzi_c_1" time="1" audio="1'" notepos="0_1_8" code="1'" xmlns:xlink="http://www.w3.org/1999/xlink"></use>
<use x="351.72053872054" y="236" xlink:href="#xiaojiexian" notepos="0_1_9" time="0" audio="" code="|" xmlns:xlink="http://www.w3.org/1999/xlink"></use>
<use x="384.43434343434" y="236" xlink:href="#shuzi_c_3" time="1" audio="3" notepos="0_1_10" code="3" xmlns:xlink="http://www.w3.org/1999/xlink"></use>
<use x="419.48484848485" y="236" xlink:href="#shuzi_c_2" time="1" audio="2'" notepos="0_1_11" code="2'" xmlns:xlink="http://www.w3.org/1999/xlink"></use>
<use x="452.19865319865" y="236" xlink:href="#xiaojiexian" notepos="0_1_12" time="0" audio="" code="|" xmlns:xlink="http://www.w3.org/1999/xlink"></use>
<use x="484.91245791246" y="236" xlink:href="#shuzi_c_2" time="1" audio="2" notepos="0_1_13" code="2" xmlns:xlink="http://www.w3.org/1999/xlink"></use>
<use x="519.96296296296" y="236" xlink:href="#shuzi_c_4" time="1" audio="4'" notepos="0_1_14" code="4'" xmlns:xlink="http://www.w3.org/1999/xlink"></use>
<use x="552.67676767677" y="236" xlink:href="#xiaojiexian" notepos="0_1_15" time="0" audio="" code="|" xmlns:xlink="http://www.w3.org/1999/xlink"></use>
<use x="585.39057239057" y="236" xlink:href="#shuzi_c_4" time="1" audio="4" notepos="0_1_16" code="4" xmlns:xlink="http://www.w3.org/1999/xlink"></use>
<use x="620.44107744108" y="236" xlink:href="#shuzi_c_3" time="1" audio="3'" notepos="0_1_17" code="3'" xmlns:xlink="http://www.w3.org/1999/xlink"></use>
<use x="653.15488215488" y="236" xlink:href="#xiaojiexian" notepos="0_1_18" time="0" audio="" code="|" xmlns:xlink="http://www.w3.org/1999/xlink"></use>
<use x="685.86868686869" y="236" xlink:href="#shuzi_c_1" time="1" audio="1" notepos="0_1_19" code="1" xmlns:xlink="http://www.w3.org/1999/xlink"></use>
<use x="720.91919191919" y="236" xlink:href="#yanyinfu" time="1" audio="" notepos="0_1_20" code="-" xmlns:xlink="http://www.w3.org/1999/xlink"></use>
<use x="763" y="236" xlink:href="#xiaojiexian" notepos="0_1_21" time="0" audio="" code="|" xmlns:xlink="http://www.w3.org/1999/xlink"></use>
<use x="83" y="314" xlink:href="#shuzi_c_6" time="1" audio="6" notepos="0_2_1" code="6" xmlns:xlink="http://www.w3.org/1999/xlink"></use>
<use x="118.05050505051" y="314" xlink:href="#shuzi_c_2" time="1" audio="2" notepos="0_2_2" code="2" xmlns:xlink="http://www.w3.org/1999/xlink"></use>
<use x="150.76430976431" y="314" xlink:href="#xiaojiexian" notepos="0_2_3" time="0" audio="" code="|" xmlns:xlink="http://www.w3.org/1999/xlink"></use>
<use x="183.47811447811" y="314" xlink:href="#shuzi_c_7" time="1" audio="7" notepos="0_2_4" code="7" xmlns:xlink="http://www.w3.org/1999/xlink"></use>
<use x="218.52861952862" y="314" xlink:href="#shuzi_c_3" time="1" audio="3" notepos="0_2_5" code="3" xmlns:xlink="http://www.w3.org/1999/xlink"></use>
<use x="251.24242424242" y="314" xlink:href="#xiaojiexian" notepos="0_2_6" time="0" audio="" code="|" xmlns:xlink="http://www.w3.org/1999/xlink"></use>
<use x="283.95622895623" y="314" xlink:href="#shuzi_c_1" time="1" audio="1'" notepos="0_2_7" code="1'" xmlns:xlink="http://www.w3.org/1999/xlink"></use>
<use x="319.00673400673" y="314" xlink:href="#shuzi_c_4" time="1" audio="4" notepos="0_2_8" code="4" xmlns:xlink="http://www.w3.org/1999/xlink"></use>
<use x="351.72053872054" y="314" xlink:href="#xiaojiexian" notepos="0_2_9" time="0" audio="" code="|" xmlns:xlink="http://www.w3.org/1999/xlink"></use>
<use x="384.43434343434" y="314" xlink:href="#shuzi_c_2" time="1" audio="2'" notepos="0_2_10" code="2'" xmlns:xlink="http://www.w3.org/1999/xlink"></use>
<use x="419.48484848485" y="314" xlink:href="#shuzi_c_5" time="1" audio="5" notepos="0_2_11" code="5" xmlns:xlink="http://www.w3.org/1999/xlink"></use>
<use x="452.19865319865" y="314" xlink:href="#xiaojiexian" notepos="0_2_12" time="0" audio="" code="|" xmlns:xlink="http://www.w3.org/1999/xlink"></use>
<use x="484.91245791246" y="314" xlink:href="#shuzi_c_3" time="1" audio="3'" notepos="0_2_13" code="3'" xmlns:xlink="http://www.w3.org/1999/xlink"></use>
<use x="519.96296296296" y="314" xlink:href="#shuzi_c_6" time="1" audio="6" notepos="0_2_14" code="6" xmlns:xlink="http://www.w3.org/1999/xlink"></use>
<use x="552.67676767677" y="314" xlink:href="#xiaojiexian" notepos="0_2_15" time="0" audio="" code="|" xmlns:xlink="http://www.w3.org/1999/xlink"></use>
<use x="585.39057239057" y="314" xlink:href="#shuzi_c_4" time="1" audio="4'" notepos="0_2_16" code="4'" xmlns:xlink="http://www.w3.org/1999/xlink"></use>
<use x="620.44107744108" y="314" xlink:href="#shuzi_c_7" time="1" audio="7" notepos="0_2_17" code="7" xmlns:xlink="http://www.w3.org/1999/xlink"></use>
<use x="653.15488215488" y="314" xlink:href="#xiaojiexian" notepos="0_2_18" time="0" audio="" code="|" xmlns:xlink="http://www.w3.org/1999/xlink"></use>
<use x="685.86868686869" y="314" xlink:href="#shuzi_c_2" time="1" audio="2" notepos="0_2_19" code="2" xmlns:xlink="http://www.w3.org/1999/xlink"></use>
<use x="720.91919191919" y="314" xlink:href="#yanyinfu" time="1" audio="" notepos="0_2_20" code="-" xmlns:xlink="http://www.w3.org/1999/xlink"></use>
<use x="763" y="314" xlink:href="#xiaojiexian" notepos="0_2_21" time="0" audio="" code="|" xmlns:xlink="http://www.w3.org/1999/xlink"></use>
<use x="83" y="392" xlink:href="#shuzi_c_4" time="1" audio="4'" notepos="0_3_1" code="4'" xmlns:xlink="http://www.w3.org/1999/xlink"></use>
<use x="118.05050505051" y="392" xlink:href="#shuzi_c_1" time="1" audio="1" notepos="0_3_2" code="1" xmlns:xlink="http://www.w3.org/1999/xlink"></use>
<use x="150.76430976431" y="392" xlink:href="#xiaojiexian" notepos="0_3_3" time="0" audio="" code="|" xmlns:xlink="http://www.w3.org/1999/xlink"></use>
<use x="183.47811447811" y="392" xlink:href="#shuzi_c_3" time="1" audio="3'" notepos="0_3_4" code="3'" xmlns:xlink="http://www.w3.org/1999/xlink"></use>
<use x="218.52861952862" y="392" xlink:href="#shuzi_c_3" time="1" audio="3" notepos="0_3_5" code="3" xmlns:xlink="http://www.w3.org/1999/xlink"></use>
<use x="251.24242424242" y="392" xlink:href="#xiaojiexian" notepos="0_3_6" time="0" audio="" code="|" xmlns:xlink="http://www.w3.org/1999/xlink"></use>
<use x="283.95622895623" y="392" xlink:href="#shuzi_c_2" time="1" audio="2'" notepos="0_3_7" code="2'" xmlns:xlink="http://www.w3.org/1999/xlink"></use>
<use x="319.00673400673" y="392" xlink:href="#shuzi_c_2" time="1" audio="2" notepos="0_3_8" code="2" xmlns:xlink="http://www.w3.org/1999/xlink"></use>
<use x="351.72053872054" y="392" xlink:href="#xiaojiexian" notepos="0_3_9" time="0" audio="" code="|" xmlns:xlink="http://www.w3.org/1999/xlink"></use>
<use x="384.43434343434" y="392" xlink:href="#shuzi_c_1" time="1" audio="1'" notepos="0_3_10" code="1'" xmlns:xlink="http://www.w3.org/1999/xlink"></use>
<use x="419.48484848485" y="392" xlink:href="#shuzi_c_1" time="1" audio="1" notepos="0_3_11" code="1" xmlns:xlink="http://www.w3.org/1999/xlink"></use>
<use x="452.19865319865" y="392" xlink:href="#xiaojiexian" notepos="0_3_12" time="0" audio="" code="|" xmlns:xlink="http://www.w3.org/1999/xlink"></use>
<use x="484.91245791246" y="392" xlink:href="#shuzi_c_3" time="1" audio="3'" notepos="0_3_13" code="3'" xmlns:xlink="http://www.w3.org/1999/xlink"></use>
<use x="519.96296296296" y="392" xlink:href="#shuzi_c_1" time="1" audio="1" notepos="0_3_14" code="1" xmlns:xlink="http://www.w3.org/1999/xlink"></use>
<use x="552.67676767677" y="392" xlink:href="#xiaojiexian" notepos="0_3_15" time="0" audio="" code="|" xmlns:xlink="http://www.w3.org/1999/xlink"></use>
<use x="585.39057239057" y="392" xlink:href="#shuzi_c_3" time="1" audio="3" notepos="0_3_16" code="3" xmlns:xlink="http://www.w3.org/1999/xlink"></use>
<use x="620.44107744108" y="392" xlink:href="#shuzi_c_4" time="1" audio="4'" notepos="0_3_17" code="4'" xmlns:xlink="http://www.w3.org/1999/xlink"></use>
<use x="653.15488215488" y="392" xlink:href="#xiaojiexian" notepos="0_3_18" time="0" audio="" code="|" xmlns:xlink="http://www.w3.org/1999/xlink"></use>
<use x="685.86868686869" y="392" xlink:href="#shuzi_c_7" time="1" audio="7," notepos="0_3_19" code="7," xmlns:xlink="http://www.w3.org/1999/xlink"></use>
<use x="720.91919191919" y="392" xlink:href="#yanyinfu" time="1" audio="" notepos="0_3_20" code="-" xmlns:xlink="http://www.w3.org/1999/xlink"></use>
<use x="763" y="392" xlink:href="#jieshufu" notepos="0_3_21" time="0" audio="" code="|j" xmlns:xlink="http://www.w3.org/1999/xlink"></use>
<use x="319.00673400673" y="236" xlink:href="#yingao_gao" xmlns:xlink="http://www.w3.org/1999/xlink"></use>
<use x="419.48484848485" y="236" xlink:href="#yingao_gao" xmlns:xlink="http://www.w3.org/1999/xlink"></use>
<use x="522.46296296296" y="236" xlink:href="#yingao_gao" xmlns:xlink="http://www.w3.org/1999/xlink"></use>
<use x="620.44107744108" y="236" xlink:href="#yingao_gao" xmlns:xlink="http://www.w3.org/1999/xlink"></use>
<use x="283.95622895623" y="314" xlink:href="#yingao_gao" xmlns:xlink="http://www.w3.org/1999/xlink"></use>
<use x="384.43434343434" y="314" xlink:href="#yingao_gao" xmlns:xlink="http://www.w3.org/1999/xlink"></use>
<use x="484.91245791246" y="314" xlink:href="#yingao_gao" xmlns:xlink="http://www.w3.org/1999/xlink"></use>
<use x="587.89057239057" y="314" xlink:href="#yingao_gao" xmlns:xlink="http://www.w3.org/1999/xlink"></use>
<use x="85.5" y="392" xlink:href="#yingao_gao" xmlns:xlink="http://www.w3.org/1999/xlink"></use>
<use x="183.47811447811" y="392" xlink:href="#yingao_gao" xmlns:xlink="http://www.w3.org/1999/xlink"></use>
<use x="283.95622895623" y="392" xlink:href="#yingao_gao" xmlns:xlink="http://www.w3.org/1999/xlink"></use>
<use x="384.43434343434" y="392" xlink:href="#yingao_gao" xmlns:xlink="http://www.w3.org/1999/xlink"></use>
<use x="484.91245791246" y="392" xlink:href="#yingao_gao" xmlns:xlink="http://www.w3.org/1999/xlink"></use>
<use x="622.94107744108" y="392" xlink:href="#yingao_gao" xmlns:xlink="http://www.w3.org/1999/xlink"></use>
<use x="685.86868686869" y="393" xlink:href="#yingao_di" xmlns:xlink="http://www.w3.org/1999/xlink"></use>
<g id="custom"></g></svg>
